<?xml version="1.0" encoding="utf-8"?>
<svg viewBox="0 0 500 500" xmlns="http://www.w3.org/2000/svg">
  <path id="ID0.5747466580942273" fill="#B2B2B2" stroke="#B2B2B2" stroke-width="1.6290124654769897" d="M 243.142 314.929 C 308.093 314.929 366.945 320.751 409.559 330.157 C 452.176 339.567 478.553 352.562 478.553 366.901 C 478.553 381.239 452.176 394.234 409.559 403.644 C 366.945 413.05 308.093 418.876 243.142 418.876 C 178.195 418.876 119.343 413.05 76.726 403.644 C 34.112 394.234 7.732 381.239 7.732 366.901 C 7.732 352.562 34.112 339.567 76.726 330.157 C 119.343 320.751 178.195 314.929 243.142 314.929 Z" style=""/>
  <g id="ID0.302299955394119" transform="matrix(3.753532, 0, 0, 3.753532, 3.361805, 28.81295)" style="">
    <path id="ID0.9443309367634356" fill="#660000" stroke="#703D00" stroke-width="2.1295442709179655" stroke-linecap="round" d="M 62.5002 39.7485 C 74.0507 39.7485 82.6242 42.6487 92.0961 47.6356 C 96.5971 50.0109 100.5206 54.6573 103.3884 60.3369 C 105.6463 64.8155 107.3103 70.5611 107.0537 75.9052 C 106.5642 81.9191 107.5188 90.2688 101.3522 91.3465 C 76.6889 95.6548 51.5655 95.4845 26.8249 90.584 C 20.6395 89.3588 21.9737 80.2771 21.1233 74.6979 C 20.5092 70.171 20.1801 64.7138 21.7749 60.7817 C 24.2844 54.7157 28.3643 50.1634 32.9043 47.6356 C 42.3225 42.4212 50.9497 39.7485 62.5002 39.7485 Z "/>
    <path id="ID0.28453653072938323" stroke-width="1.6525711396626834" stroke-linecap="round" d="M 63.3121 39.1368 C 73.2076 38.8277 83.1372 38.9986 92.838 40.4775 C 98.4385 41.638 105.8929 42.0117 108.7208 46.9712 C 112.3951 53.4021 109.6152 61.5649 109.1281 69.385 C 108.9155 71.4672 108.1727 75.7003 106.2773 75.0827 C 101.9743 73.0801 100.4772 63.9638 96.1367 62.5142 C 93.8862 61.766 95.78 68.9527 93.2045 70.3067 C 89.7021 72.1283 83.3946 66.4792 81.4349 69.4269 C 79.2145 72.7743 85.7778 78.2475 84.3671 82.4143 C 83.6723 85.1191 78.3666 86.8108 76.7922 84.5929 C 73.7916 80.3615 77.232 73.5368 74.6745 69.008 C 73.3314 66.6241 69.0935 66.5152 67.0996 68.1282 C 63.352 71.1706 63.7862 77.8788 59.9727 80.6966 C 57.9323 82.2024 54.693 81.1491 52.805 79.8169 C 48.032 75.6676 46.8371 66.2513 41.0354 65.1117 C 36.6582 64.2462 34.3393 75.9659 31.3428 74.6219 C 27.9569 73.0868 31.7614 59.6252 28.8178 58.618 C 26.0542 57.6972 22.7961 72.1099 20.3469 71.4379 C 17.5426 70.5807 18.081 60.6533 18.3107 55.5597 C 18.498 51.3777 17.339 44.729 21.1614 43.3263 C 34.4591 38.4774 49.222 39.5784 63.3121 39.1368 Z " style="fill: rgb(153, 255, 241); stroke: rgb(0, 94, 255);"/>
    <path id="ID0.9467714759521186" fill="none" stroke="#9B4976" stroke-width="1.6250417475923895" stroke-linecap="round" d="M 41.6896 48.7043 C 41.6896 48.7043 45.8843 47.8898 45.8843 47.8898 "/>
    <path id="ID0.23042773781344295" fill="none" stroke="#9B4976" stroke-width="1.6250417475923895" stroke-linecap="round" d="M 55.1289 58.8042 C 55.1289 58.8042 60.1789 58.8042 60.1789 58.8042 "/>
    <path id="ID0.20588193368166685" fill="none" stroke="#9B4976" stroke-width="1.6250417475923895" stroke-linecap="round" d="M 88.3608 54.2022 C 88.3608 54.2022 88.3608 50.4147 88.3608 50.4147 "/>
    <path id="ID0.6261316067539155" fill="none" stroke="#9B4976" stroke-width="1.6250417475923895" stroke-linecap="round" d="M 71.9485 42.8398 C 71.9485 42.8398 76.1839 45.3648 76.1839 45.3648 "/>
    <path id="ID0.2090843333862722" fill="none" stroke="#9B4976" stroke-width="1.6250417475923895" stroke-linecap="round" d="M 103.1034 61.7771 C 103.1034 61.7771 103.1034 57.1344 103.1034 57.1344 "/>
    <path id="ID0.9659954085946083" fill="none" stroke="#9B4976" stroke-width="1.6250417475923895" stroke-linecap="round" d="M 95.5285 47.4418 C 95.5285 47.4418 98.9087 47.4418 98.9087 47.4418 "/>
    <path id="ID0.702816660515964" fill="none" stroke="#9B4976" stroke-width="1.6250417475923895" stroke-linecap="round" d="M 29.472 53.7542 C 29.472 53.7542 33.2595 49.9668 33.2595 49.9668 "/>
    <path id="ID0.6778297000564635" fill="none" stroke="#FFFFFF" stroke-width="1.6250417475923895" stroke-linecap="round" d="M 34.1147 58.8042 C 34.1147 58.8042 37.4542 57.9897 37.4542 57.9897 "/>
    <path id="ID0.7210087068378925" fill="none" stroke="#FFFFFF" stroke-width="1.6250417475923895" stroke-linecap="round" d="M 53.4592 42.8398 C 53.4592 42.8398 56.8394 45.7721 56.8394 45.7721 "/>
    <path id="ID0.2551163868047297" fill="none" stroke="#FFFFFF" stroke-width="1.6250417475923895" stroke-linecap="round" d="M 55.5769 71.877 C 55.5769 71.877 58.9164 68.904 58.9164 68.904 "/>
    <path id="ID0.3400295590981841" fill="none" stroke="#FFFFFF" stroke-width="1.6250417475923895" stroke-linecap="round" d="M 73.211 64.3021 C 73.211 64.3021 76.5912 66.827 76.5912 66.827 "/>
    <path id="ID0.8367559141479433" fill="none" stroke="#FFFFFF" stroke-width="1.6250417475923895" stroke-linecap="round" d="M 83.7588 67.2343 C 83.7588 67.2343 84.1661 64.7093 84.1661 64.7093 Z "/>
    <path id="ID0.2565021519549191" fill="none" stroke="#FFFFFF" stroke-width="1.6250417475923895" stroke-linecap="round" d="M 84.5733 44.1023 C 84.5733 44.1023 88.3608 44.1023 88.3608 44.1023 "/>
    <path id="ID0.4049390903674066" fill="none" stroke="#FFFFFF" stroke-width="1.6250417475923895" stroke-linecap="round" d="M 95.1212 56.7272 C 95.1212 56.7272 98.4607 55.8719 98.4607 55.8719 "/>
    <path id="ID0.9062348022125661" fill="none" stroke="#FFFFFF" stroke-width="1.6250417475923895" stroke-linecap="round" d="M 24.8293 47.8898 C 24.8293 47.8898 29.472 46.1793 29.472 46.1793 "/>
    <path id="ID0.021216348744928837" fill="none" stroke="#FFFFFF" stroke-width="1.6250417475923895" stroke-linecap="round" d="M 36.1917 44.1023 C 36.1917 44.1023 37.4542 47.0345 37.4542 47.0345 Z "/>
    <path id="ID0.7581375841982663" fill="none" stroke="#FFFFFF" stroke-width="1.6250417475923895" stroke-linecap="round" d="M 71.9485 54.2022 C 71.9485 54.2022 72.3965 56.2792 72.3965 56.2792 Z "/>
    <path id="ID0.8662396180443466" fill="none" stroke="#6148A4" stroke-width="1.6250417475923895" stroke-linecap="round" d="M 45.0291 59.6594 C 45.0291 59.6594 47.554 54.2022 47.554 54.2022 "/>
    <path id="ID0.7959343986585736" fill="none" stroke="#6148A4" stroke-width="1.6250417475923895" stroke-linecap="round" d="M 62.2966 41.9846 C 62.2966 41.9846 67.3465 41.9846 67.3465 41.9846 "/>
    <path id="ID0.47782517969608307" fill="none" stroke="#6148A4" stroke-width="1.6250417475923895" stroke-linecap="round" d="M 64.8216 65.1166 C 64.8216 65.1166 69.8715 63.4468 69.8715 63.4468 "/>
    <path id="ID0.0538422497920692" fill="none" stroke="#6148A4" stroke-width="1.6250417475923895" stroke-linecap="round" d="M 79.5234 57.1344 C 79.5234 57.1344 84.1661 58.8042 84.1661 58.8042 "/>
    <path id="ID0.7071157796308398" fill="none" stroke="#6148A4" stroke-width="1.6250417475923895" stroke-linecap="round" d="M 34.5219 65.9718 C 34.5219 65.9718 38.7166 64.3021 38.7166 64.3021 "/>
    <path id="ID0.3825798323377967" fill="none" stroke="#6148A4" stroke-width="1.6250417475923895" stroke-linecap="round" d="M 24.0148 52.4917 C 24.0148 52.4917 24.0148 55.8719 24.0148 55.8719 "/>
    <path id="ID0.12323137884959579" fill="none" stroke="#6148A4" stroke-width="1.6250417475923895" stroke-linecap="round" d="M 44.2146 41.5774 C 44.2146 41.5774 48.002 41.1701 48.002 41.1701 "/>
    <path id="ID0.6972495093941689" fill="none" stroke="#6148A4" stroke-width="1.6250417475923895" stroke-linecap="round" d="M 108.1533 58.8042 C 108.1533 58.8042 108.1533 63.4468 108.1533 63.4468 "/>
    <path id="ID0.2711392594501376" fill="none" stroke="#6148A4" stroke-width="1.6250417475923895" stroke-linecap="round" d="M 79.9714 50.822 C 79.9714 50.822 83.7588 50.822 83.7588 50.822 "/>
    <path id="ID0.8978235688991845" fill="none" stroke="#6148A4" stroke-width="1.6250417475923895" stroke-linecap="round" d="M 79.1162 41.1701 C 79.1162 41.1701 81.6411 41.1701 81.6411 41.1701 Z "/>
  </g>
  <path id="White" fill="#FFFFFF" d="M 131.276 210.562 C 132.856 208.997 134.969 207.447 137.169 207.439 C 139.646 207.436 142.018 208.408 143.662 209.279 C 143.381 168.928 143.039 129.722 142.611 92.258 C 141.057 90.764 139.473 88.734 137.942 88.659 C 135.547 88.557 132.665 89.064 130.401 92.957 C 130.754 126.611 131.039 167.419 131.276 210.562 Z" stroke-width="1.2432563398069947" style=""/>
  <path id="Blue" fill="#42B5E8" d="M 129.256 142.909 C 129.418 145.442 129.305 148.254 129.32 150.228 C 129.354 154.237 128.431 158.332 129.069 162.326 C 129.166 162.329 129.249 162.333 129.35 162.337 C 131.467 162.389 133.655 162.416 135.863 162.404 C 138.884 162.393 141.388 162.329 143.933 162.239 C 143.861 156.376 145.415 149.124 144.631 142.837 C 142.596 142.815 139.654 142.792 136.579 142.8 C 133.858 142.807 131.227 142.856 129.256 142.909 Z" stroke-width="0.42919367025545774" style=""/>
  <path id="Blue" fill="#42B5E8" d="M 130.007 106.875 C 130.168 109.408 130.056 112.22 130.071 114.194 C 130.105 118.203 129.181 122.298 129.819 126.292 C 129.917 126.295 130 126.299 130.101 126.303 C 132.218 126.355 134.406 126.382 136.613 126.37 C 139.635 126.359 142.138 126.295 144.683 126.205 C 144.612 120.342 146.166 113.09 145.382 106.803 C 143.347 106.781 140.404 106.758 137.33 106.766 C 134.609 106.773 131.978 106.822 130.007 106.875 Z" stroke-width="0.42919367025545774" style=""/>
  <path id="Blue" fill="#42B5E8" d="M 128.693 181.945 C 128.855 184.479 128.742 187.29 128.757 189.265 C 128.791 193.273 127.868 197.369 128.506 201.362 C 128.603 201.366 128.686 201.37 128.787 201.374 C 130.904 201.426 133.092 201.452 135.3 201.441 C 138.321 201.43 140.825 201.366 143.37 201.276 C 143.298 195.413 144.852 188.161 144.068 181.874 C 142.033 181.851 139.091 181.829 136.016 181.836 C 133.295 181.844 130.664 181.893 128.693 181.945 Z" stroke-width="0.42919367025545774" style=""/>
  <path id="Outline" fill="#231F20" d="M 147.232 90.412 C 147.911 90.734 148.013 91.121 147.776 91.451 C 145.858 127.211 146.958 172.712 145.46 208.303 C 145.46 208.34 145.434 208.37 145.423 208.404 C 145.423 208.426 145.427 208.456 145.427 208.472 C 145.077 210.288 138.854 210.348 136.572 210.363 C 133.558 210.378 127.646 210.097 126.471 208.104 C 126.46 208.085 126.467 208.055 126.464 208.032 C 126.415 207.972 126.351 207.912 126.347 207.856 C 125.555 187.099 124.715 166.466 124.808 145.799 C 124.88 130.702 124.745 106.049 125.45 90.956 C 125.492 90.119 126.52 89.657 127.642 89.567 C 129.632 88.786 133.412 88.606 135.161 88.565 C 139.297 88.46 144.09 88.929 147.232 90.412 Z M 130.503 91.279 C 130.206 96.905 129.996 102.798 129.857 108.86 C 129.114 140.773 130.24 177.565 130.082 207.33 C 132.132 207.762 134.147 208.051 136.583 208.089 C 138.366 208.119 140.13 207.972 141.834 207.687 C 141.917 207.668 141.985 207.646 142.063 207.627 C 142.645 187.343 141.973 166.571 142.071 146.234 C 142.116 136.201 142.071 121.941 142.247 109.078 C 142.337 102.592 142.48 96.462 142.717 91.403 C 140.442 90.817 137.555 90.734 135.161 90.746 C 133.629 90.753 132.053 91.057 130.503 91.279 Z" stroke-width="0.3887521204977863" style=""/>
  <path id="ID0.18814716208726168" fill="#FF9400" stroke="#FF9400" stroke-width="2.0632389533060156" stroke-linecap="round" d="M 134.312 40.107 C 134.372 39.131 133.381 37.468 134.752 40.107 C 140.314 50.729 146.658 61.735 150.145 73.059 C 151.079 76.054 149.492 79.53 147.506 82.522 C 145.532 85.123 143.118 89.132 138.712 89.211 C 134.083 89.289 130.525 85.292 128.813 82.195 C 126.021 78.329 125.067 73.675 125.957 69.471 C 127.109 64.013 132.391 58.912 133.873 53.972 C 135.236 49.449 134.098 43.995 134.312 40.107 Z" style=""/>
  <path id="ID0.6274793283082545" fill="#FFFF99" stroke="none" stroke-linecap="round" d="M 136.692 74.414 C 137.143 73.915 137.18 73.648 137.458 73.96 C 138.655 76.238 139.916 78.569 140.209 80.596 C 140.404 81.996 139.492 83.359 139.132 84.721 C 138.723 86.365 139.391 90.156 138.224 90.292 C 136.914 90.156 134.932 86.482 133.948 84.721 C 133.224 83.441 132.567 81.989 132.871 80.596 C 133.344 78.588 135.093 76.302 136.692 74.414 Z" stroke-width="0.717111166050301" style=""/>
  <path id="White" fill="#FFFFFF" d="M 193.187 204.181 C 191.603 202.616 189.489 201.066 187.293 201.058 C 184.816 201.055 182.44 202.027 180.796 202.898 C 181.078 162.547 181.423 123.341 181.851 85.877 C 183.405 84.383 184.989 82.353 186.516 82.278 C 188.915 82.176 191.798 82.683 194.061 86.576 C 193.708 120.23 193.423 161.038 193.187 204.181 Z" stroke-width="1.2432563398069947" style=""/>
  <path id="Blue" fill="#42B5E8" d="M 195.394 136.34 C 195.228 138.874 195.345 141.685 195.33 143.659 C 195.292 147.668 196.216 151.763 195.581 155.757 C 195.484 155.761 195.401 155.764 195.296 155.768 C 193.179 155.821 190.991 155.847 188.784 155.836 C 185.762 155.824 183.262 155.761 180.717 155.671 C 180.789 149.808 179.231 142.556 180.019 136.269 C 182.054 136.246 184.993 136.224 188.067 136.231 C 190.792 136.239 193.423 136.287 195.394 136.34 Z" stroke-width="0.42919367025545774" style=""/>
  <path id="Blue" fill="#42B5E8" d="M 194.455 100.869 C 194.29 103.403 194.406 106.214 194.391 108.188 C 194.354 112.197 195.277 116.292 194.643 120.286 C 194.545 120.29 194.463 120.294 194.358 120.297 C 192.241 120.35 190.052 120.376 187.845 120.365 C 184.824 120.354 182.324 120.29 179.779 120.2 C 179.85 114.337 178.293 107.085 179.081 100.798 C 181.115 100.775 184.054 100.753 187.128 100.76 C 189.853 100.768 192.485 100.816 194.455 100.869 Z" stroke-width="0.42919367025545774" style=""/>
  <path id="Blue" fill="#42B5E8" d="M 195.394 175.377 C 195.228 177.91 195.345 180.722 195.33 182.696 C 195.292 186.705 196.216 190.8 195.581 194.794 C 195.484 194.797 195.401 194.801 195.296 194.805 C 193.179 194.857 190.991 194.884 188.784 194.872 C 185.762 194.861 183.262 194.797 180.717 194.707 C 180.789 188.844 179.231 181.592 180.019 175.305 C 182.054 175.283 184.993 175.26 188.067 175.268 C 190.792 175.275 193.423 175.324 195.394 175.377 Z" stroke-width="0.42919367025545774" style=""/>
  <path id="Outline" fill="#231F20" d="M 198.843 84.218 C 199.522 84.541 199.624 84.928 199.387 85.258 C 197.469 121.018 198.569 166.518 197.071 202.109 C 197.071 202.147 197.045 202.177 197.034 202.211 C 197.034 202.233 197.038 202.263 197.038 202.278 C 196.689 204.095 190.465 204.155 188.183 204.17 C 185.169 204.185 179.257 203.903 178.082 201.91 C 178.071 201.892 178.079 201.862 178.075 201.839 C 178.026 201.779 177.962 201.719 177.958 201.663 C 177.166 180.906 176.326 160.272 176.419 139.605 C 176.491 124.509 176.356 99.856 177.061 84.763 C 177.103 83.926 178.131 83.464 179.253 83.374 C 181.243 82.593 185.023 82.413 186.772 82.372 C 190.908 82.266 195.701 82.736 198.843 84.218 Z M 182.114 85.085 C 181.817 90.712 181.607 96.605 181.468 102.667 C 180.725 134.579 181.851 171.372 181.693 201.137 C 183.743 201.569 185.758 201.858 188.194 201.895 C 189.977 201.925 191.741 201.779 193.446 201.494 C 193.528 201.475 193.596 201.452 193.674 201.434 C 194.256 181.15 193.584 160.377 193.682 140.041 C 193.727 130.008 193.682 115.748 193.858 102.885 C 193.948 96.399 194.091 90.269 194.328 85.209 C 192.053 84.624 189.166 84.541 186.772 84.552 C 185.24 84.56 183.664 84.864 182.114 85.085 Z" stroke-width="0.3887521204977863" style=""/>
  <path id="ID0.18814716208726168" fill="#FF9400" stroke="none" stroke-linecap="round" d="M 190.702 33.178 C 190.638 32.172 191.659 30.464 190.251 33.178 C 184.531 44.093 178.015 55.402 174.43 67.038 C 173.473 70.116 175.106 73.686 177.144 76.76 C 179.171 79.433 181.652 83.554 186.182 83.633 C 190.938 83.715 194.594 79.605 196.351 76.426 C 199.222 72.451 200.202 67.669 199.29 63.349 C 198.104 57.741 192.676 52.501 191.152 47.426 C 189.752 42.776 190.923 37.168 190.702 33.178 Z" stroke-width="1.0600773543970292" style=""/>
  <path id="ID0.6274793283082545" fill="#FFFF99" stroke="none" stroke-linecap="round" d="M 187.954 68.221 C 187.507 67.722 187.47 67.455 187.192 67.767 C 185.991 70.045 184.734 72.376 184.441 74.403 C 184.246 75.803 185.154 77.165 185.514 78.528 C 185.927 80.172 185.259 83.963 186.426 84.098 C 187.736 83.963 189.718 80.288 190.702 78.528 C 191.426 77.248 192.083 75.795 191.775 74.403 C 191.306 72.395 189.553 70.109 187.954 68.221 Z" stroke-width="0.717111166050301" style=""/>
  <path id="White" fill="#FFFFFF" d="M 237.313 201.741 C 238.893 200.176 241.007 198.626 243.206 198.618 C 245.683 198.615 248.056 199.587 249.7 200.458 C 249.418 160.107 249.077 120.902 248.649 83.438 C 247.095 81.944 245.511 79.913 243.979 79.838 C 241.585 79.737 238.702 80.243 236.438 84.136 C 236.791 117.79 237.077 158.598 237.313 201.741 Z" stroke-width="1.2432563398069947" style=""/>
  <path id="Blue" fill="#42B5E8" d="M 235.294 134.088 C 235.455 136.621 235.342 139.433 235.357 141.407 C 235.391 145.416 234.468 149.511 235.106 153.505 C 235.204 153.509 235.286 153.512 235.387 153.516 C 237.504 153.569 239.693 153.595 241.9 153.584 C 244.921 153.572 247.425 153.509 249.97 153.418 C 249.899 147.555 251.453 140.304 250.668 134.016 C 248.634 133.994 245.691 133.971 242.617 133.979 C 239.895 133.986 237.264 134.035 235.294 134.088 Z" stroke-width="0.42919367025545774" style=""/>
  <path id="Blue" fill="#42B5E8" d="M 236.232 98.054 C 236.393 100.587 236.281 103.399 236.296 105.373 C 236.33 109.382 235.406 113.477 236.044 117.471 C 236.142 117.475 236.225 117.478 236.326 117.482 C 238.443 117.535 240.631 117.561 242.838 117.55 C 245.86 117.538 248.363 117.475 250.908 117.385 C 250.837 111.522 252.391 104.27 251.606 97.983 C 249.572 97.96 246.629 97.937 243.555 97.945 C 240.834 97.953 238.203 98.001 236.232 98.054 Z" stroke-width="0.42919367025545774" style=""/>
  <path id="Blue" fill="#42B5E8" d="M 235.106 173.124 C 235.267 175.658 235.155 178.47 235.17 180.444 C 235.204 184.453 234.28 188.548 234.918 192.542 C 235.016 192.545 235.098 192.549 235.2 192.553 C 237.317 192.605 239.505 192.632 241.712 192.62 C 244.734 192.609 247.237 192.545 249.782 192.455 C 249.711 186.592 251.265 179.34 250.48 173.053 C 248.446 173.031 245.503 173.008 242.429 173.016 C 239.708 173.023 237.077 173.072 235.106 173.124 Z" stroke-width="0.42919367025545774" style=""/>
  <path id="Outline" fill="#231F20" d="M 253.645 81.591 C 254.324 81.914 254.425 82.3 254.189 82.631 C 252.271 118.39 253.371 163.891 251.873 199.482 C 251.873 199.519 251.847 199.549 251.835 199.583 C 251.835 199.606 251.839 199.636 251.839 199.651 C 251.49 201.467 245.267 201.527 242.985 201.542 C 239.971 201.557 234.059 201.276 232.884 199.283 C 232.873 199.264 232.88 199.234 232.876 199.212 C 232.828 199.151 232.764 199.091 232.76 199.035 C 231.968 178.278 231.127 157.645 231.221 136.978 C 231.292 121.881 231.157 97.228 231.863 82.135 C 231.904 81.298 232.933 80.836 234.055 80.746 C 236.044 79.966 239.824 79.785 241.573 79.744 C 245.71 79.639 250.503 80.108 253.645 81.591 Z M 236.915 82.458 C 236.619 88.084 236.408 93.978 236.27 100.039 C 235.526 131.952 236.652 168.744 236.495 198.51 C 238.544 198.941 240.56 199.23 242.996 199.268 C 244.779 199.298 246.543 199.151 248.247 198.866 C 248.33 198.847 248.397 198.825 248.476 198.806 C 249.058 178.522 248.386 157.75 248.484 137.413 C 248.529 127.38 248.484 113.121 248.66 100.257 C 248.75 93.771 248.893 87.642 249.129 82.582 C 246.855 81.996 243.968 81.914 241.573 81.925 C 240.042 81.932 238.465 82.236 236.915 82.458 Z" stroke-width="0.3887521204977863" style=""/>
  <path id="ID0.18814716208726168" fill="#FF9400" stroke="none" stroke-linecap="round" d="M 240.162 30.633 C 240.226 29.601 239.175 27.844 240.624 30.633 C 246.498 41.848 253.194 53.466 256.876 65.421 C 257.86 68.585 256.186 72.252 254.091 75.409 C 252.004 78.156 249.456 82.39 244.805 82.473 C 239.918 82.556 236.164 78.337 234.355 75.067 C 231.409 70.983 230.399 66.07 231.337 61.633 C 232.554 55.872 238.131 50.485 239.697 45.272 C 241.138 40.493 239.933 34.736 240.162 30.633 Z" stroke-width="1.089120651655469" style=""/>
  <path id="ID0.6274793283082545" fill="#FFFF99" stroke="none" stroke-linecap="round" d="M 242.542 65.969 C 242.992 65.469 243.03 65.203 243.307 65.514 C 244.505 67.793 245.766 70.124 246.059 72.151 C 246.254 73.551 245.342 74.913 244.982 76.276 C 244.572 77.92 245.241 81.711 244.073 81.846 C 242.763 81.711 240.781 78.036 239.798 76.276 C 239.073 74.996 238.417 73.543 238.721 72.151 C 239.194 70.143 240.943 67.857 242.542 65.969 Z" stroke-width="0.717111166050301" style=""/>
  <path id="White" fill="#FFFFFF" d="M 293.428 205.683 C 295.009 204.117 297.122 202.567 299.321 202.56 C 301.799 202.556 304.171 203.528 305.815 204.399 C 305.533 164.048 305.192 124.843 304.764 87.379 C 303.21 85.885 301.626 83.854 300.095 83.779 C 297.7 83.678 294.817 84.185 292.554 88.077 C 292.907 121.731 293.192 162.54 293.428 205.683 Z" stroke-width="1.2432563398069947" style=""/>
  <path id="Blue" fill="#42B5E8" d="M 291.034 137.841 C 291.195 140.375 291.082 143.186 291.097 145.161 C 291.131 149.169 290.208 153.265 290.846 157.258 C 290.944 157.262 291.026 157.266 291.127 157.27 C 293.244 157.322 295.433 157.348 297.64 157.337 C 300.661 157.326 303.165 157.262 305.71 157.172 C 305.639 151.309 307.193 144.057 306.408 137.77 C 304.374 137.747 301.431 137.725 298.357 137.732 C 295.635 137.74 293.004 137.789 291.034 137.841 Z" stroke-width="0.42919367025545774" style=""/>
  <path id="Blue" fill="#42B5E8" d="M 291.972 102.183 C 292.133 104.716 292.021 107.528 292.036 109.502 C 292.07 113.511 291.146 117.606 291.784 121.6 C 291.882 121.604 291.964 121.607 292.066 121.611 C 294.183 121.664 296.371 121.69 298.578 121.679 C 301.6 121.667 304.103 121.604 306.648 121.513 C 306.577 115.65 308.131 108.399 307.346 102.111 C 305.312 102.089 302.369 102.066 299.295 102.074 C 296.574 102.081 293.943 102.13 291.972 102.183 Z" stroke-width="0.42919367025545774" style=""/>
  <path id="Blue" fill="#42B5E8" d="M 291.034 176.878 C 291.195 179.412 291.082 182.223 291.097 184.197 C 291.131 188.206 290.208 192.301 290.846 196.295 C 290.944 196.299 291.026 196.303 291.127 196.306 C 293.244 196.359 295.433 196.385 297.64 196.374 C 300.661 196.363 303.165 196.299 305.71 196.209 C 305.639 190.346 307.193 183.094 306.408 176.807 C 304.374 176.784 301.431 176.762 298.357 176.769 C 295.635 176.777 293.004 176.825 291.034 176.878 Z" stroke-width="0.42919367025545774" style=""/>
  <path id="Outline" fill="#231F20" d="M 309.572 85.72 C 310.252 86.043 310.353 86.429 310.117 86.759 C 308.198 122.519 309.298 168.02 307.801 203.611 C 307.801 203.648 307.774 203.678 307.763 203.712 C 307.763 203.735 307.767 203.765 307.767 203.78 C 307.418 205.596 301.194 205.656 298.912 205.671 C 295.898 205.686 289.986 205.405 288.812 203.412 C 288.8 203.393 288.808 203.363 288.804 203.34 C 288.755 203.28 288.691 203.22 288.688 203.164 C 287.896 182.407 287.055 161.774 287.149 141.107 C 287.22 126.01 287.085 101.357 287.791 86.264 C 287.832 85.427 288.86 84.965 289.983 84.875 C 291.972 84.094 295.752 83.914 297.501 83.873 C 301.637 83.768 306.431 84.237 309.572 85.72 Z M 292.843 86.587 C 292.546 92.213 292.336 98.106 292.197 104.168 C 291.454 136.081 292.58 172.873 292.422 202.639 C 294.472 203.07 296.487 203.359 298.924 203.397 C 300.706 203.427 302.471 203.28 304.175 202.995 C 304.257 202.976 304.325 202.954 304.404 202.935 C 304.985 182.651 304.314 161.879 304.411 141.542 C 304.456 131.509 304.411 117.249 304.588 104.386 C 304.678 97.9 304.82 91.77 305.057 86.711 C 302.782 86.125 299.896 86.043 297.501 86.054 C 295.969 86.061 294.393 86.365 292.843 86.587 Z" stroke-width="0.3887521204977863" style=""/>
  <path id="ID0.18814716208726168" fill="#FF9400" stroke="none" stroke-linecap="round" d="M 295.38 37.498 C 295.44 36.522 294.449 34.867 295.819 37.498 C 301.367 48.098 307.696 59.073 311.175 70.372 C 312.106 73.359 310.522 76.828 308.54 79.812 C 306.573 82.405 304.163 86.403 299.768 86.482 C 295.151 86.561 291.6 82.574 289.896 79.485 C 287.107 75.63 286.158 70.983 287.044 66.791 C 288.192 61.348 293.462 56.258 294.941 51.334 C 296.3 46.818 295.162 41.376 295.38 37.498 Z" stroke-width="1.0291167200959086" style=""/>
  <path id="ID0.6274793283082545" fill="#FFFF99" stroke="none" stroke-linecap="round" d="M 298.282 69.722 C 298.732 69.223 298.77 68.956 299.047 69.268 C 300.245 71.546 301.506 73.877 301.799 75.904 C 301.994 77.304 301.082 78.667 300.721 80.029 C 300.312 81.673 300.98 85.465 299.813 85.6 C 298.503 85.465 296.521 81.79 295.538 80.029 C 294.813 78.749 294.157 77.297 294.461 75.904 C 294.934 73.896 296.683 71.61 298.282 69.722 Z" stroke-width="0.717111166050301" style=""/>
  <path id="White" fill="#FFFFFF" d="M 355.527 209.812 C 353.943 208.246 351.83 206.696 349.634 206.689 C 347.156 206.685 344.78 207.657 343.136 208.528 C 343.418 168.177 343.763 128.972 344.191 91.508 C 345.745 90.014 347.329 87.983 348.857 87.908 C 351.255 87.807 354.138 88.313 356.401 92.206 C 356.049 125.86 355.763 166.668 355.527 209.812 Z" stroke-width="1.2432563398069947" style=""/>
  <path id="Blue" fill="#42B5E8" d="M 357.546 142.158 C 357.381 144.691 357.497 147.503 357.482 149.477 C 357.445 153.486 358.368 157.581 357.734 161.575 C 357.636 161.579 357.554 161.582 357.449 161.586 C 355.332 161.639 353.143 161.665 350.936 161.654 C 347.915 161.642 345.415 161.579 342.87 161.489 C 342.941 155.626 341.383 148.374 342.172 142.087 C 344.206 142.064 347.145 142.041 350.219 142.049 C 352.944 142.057 355.576 142.105 357.546 142.158 Z" stroke-width="0.42919367025545774" style=""/>
  <path id="Blue" fill="#42B5E8" d="M 356.608 106.312 C 356.443 108.845 356.559 111.657 356.544 113.631 C 356.506 117.64 357.43 121.735 356.795 125.729 C 356.698 125.732 356.615 125.736 356.51 125.74 C 354.393 125.792 352.205 125.819 349.998 125.807 C 346.976 125.796 344.476 125.732 341.931 125.642 C 342.003 119.779 340.445 112.527 341.233 106.24 C 343.268 106.218 346.207 106.195 349.281 106.203 C 352.006 106.21 354.637 106.259 356.608 106.312 Z" stroke-width="0.42919367025545774" style=""/>
  <path id="Blue" fill="#42B5E8" d="M 358.109 181.007 C 357.944 183.541 358.06 186.352 358.045 188.326 C 358.008 192.335 358.931 196.43 358.297 200.424 C 358.199 200.428 358.117 200.431 358.012 200.435 C 355.895 200.488 353.706 200.514 351.499 200.503 C 348.478 200.491 345.978 200.428 343.433 200.338 C 343.504 194.475 341.947 187.223 342.735 180.936 C 344.769 180.913 347.708 180.891 350.782 180.898 C 353.507 180.906 356.139 180.954 358.109 181.007 Z" stroke-width="0.42919367025545774" style=""/>
  <path id="Outline" fill="#231F20" d="M 361.183 89.849 C 361.863 90.171 361.964 90.558 361.728 90.888 C 359.81 126.648 360.909 172.149 359.412 207.74 C 359.412 207.777 359.385 207.807 359.374 207.841 C 359.374 207.863 359.378 207.893 359.378 207.908 C 359.029 209.725 352.805 209.785 350.523 209.8 C 347.509 209.815 341.597 209.534 340.423 207.541 C 340.411 207.522 340.419 207.492 340.415 207.469 C 340.366 207.409 340.302 207.349 340.299 207.293 C 339.507 186.536 338.666 165.903 338.76 145.236 C 338.831 130.139 338.696 105.486 339.402 90.393 C 339.443 89.556 340.471 89.094 341.594 89.004 C 343.583 88.223 347.363 88.043 349.112 88.002 C 353.248 87.897 358.042 88.366 361.183 89.849 Z M 344.454 90.716 C 344.157 96.342 343.947 102.235 343.808 108.297 C 343.065 140.21 344.191 177.002 344.033 206.767 C 346.083 207.199 348.099 207.488 350.535 207.526 C 352.318 207.556 354.082 207.409 355.786 207.124 C 355.868 207.105 355.936 207.083 356.015 207.064 C 356.597 186.78 355.925 166.008 356.022 145.671 C 356.067 135.638 356.022 121.378 356.199 108.515 C 356.289 102.029 356.431 95.899 356.668 90.84 C 354.393 90.254 351.507 90.171 349.112 90.183 C 347.581 90.19 346.004 90.494 344.454 90.716 Z" stroke-width="0.3887521204977863" style=""/>
  <path id="ID0.18814716208726168" fill="#FF9400" stroke="none" stroke-linecap="round" d="M 348.241 41.909 C 348.305 40.933 347.31 39.274 348.68 41.909 C 354.228 52.501 360.557 63.48 364.032 74.774 C 364.963 77.759 363.379 81.227 361.401 84.211 C 359.43 86.805 357.024 90.802 352.629 90.881 C 348.012 90.96 344.465 86.973 342.757 83.884 C 339.972 80.029 339.023 75.386 339.908 71.194 C 341.057 65.751 346.327 60.665 347.802 55.737 C 349.165 51.225 348.027 45.782 348.241 41.909 Z" stroke-width="1.0288985814112537" style=""/>
  <path id="ID0.6274793283082545" fill="#FFFF99" stroke="none" stroke-linecap="round" d="M 350.831 73.476 C 351.282 72.977 351.319 72.71 351.597 73.022 C 352.794 75.3 354.055 77.631 354.348 79.658 C 354.543 81.058 353.631 82.42 353.271 83.783 C 352.862 85.427 353.53 89.218 352.363 89.353 C 351.053 89.218 349.071 85.543 348.087 83.783 C 347.363 82.503 346.706 81.05 347.01 79.658 C 347.483 77.65 349.232 75.364 350.831 73.476 Z" stroke-width="0.717111166050301" style=""/>
</svg>